<svg xmlns="http://www.w3.org/2000/svg" viewBox="0 0 820 420">
  <defs>
    <linearGradient id="body" x1="0" x2="1">
      <stop offset="0" stop-color="#ffdd33"/>
      <stop offset=".12" stop-color="#ff4b2f"/>
      <stop offset=".78" stop-color="#d91528"/>
      <stop offset="1" stop-color="#7a1014"/>
    </linearGradient>
    <linearGradient id="glass" x1="0" x2="1">
      <stop offset="0" stop-color="#7ee7ff"/>
      <stop offset="1" stop-color="#1763ff"/>
    </linearGradient>
    <filter id="shadow" x="-10%" y="-20%" width="120%" height="150%">
      <feDropShadow dx="0" dy="22" stdDeviation="16" flood-color="#00132e" flood-opacity=".45"/>
    </filter>
  </defs>
  <g filter="url(#shadow)">
    <path d="M78 255c18-64 85-114 184-128l75-66h186c74 34 129 83 169 146l72 21c20 6 33 23 33 44v40H41v-25c0-18 15-32 37-32z" fill="url(#body)"/>
    <path d="M314 126l50-42h139c39 18 74 44 104 79H286z" fill="url(#glass)" opacity=".95"/>
    <path d="M106 257h600c21 0 38 17 38 38H67c0-21 17-38 39-38z" fill="#ffef45"/>
    <circle cx="178" cy="304" r="62" fill="#101827"/>
    <circle cx="178" cy="304" r="32" fill="#d8e1f5"/>
    <circle cx="642" cy="304" r="62" fill="#101827"/>
    <circle cx="642" cy="304" r="32" fill="#d8e1f5"/>
    <path d="M446 202h79l-25 62h-90z" fill="#fff" opacity=".9"/>
    <path d="M120 222c68-28 132-43 194-46" fill="none" stroke="#fff" stroke-width="12" stroke-linecap="round" opacity=".8"/>
    <path d="M690 220l-48-42h78c23 0 43 20 43 43z" fill="#ffdf3f"/>
  </g>
</svg>
