<svg xmlns="http://www.w3.org/2000/svg" viewBox="0 0 1200 680">
  <defs>
    <linearGradient id="sky" x1="0" x2="1" y1="0" y2="1">
      <stop offset="0" stop-color="#07143a"/>
      <stop offset=".55" stop-color="#26207a"/>
      <stop offset="1" stop-color="#00b8ff"/>
    </linearGradient>
    <filter id="glow"><feGaussianBlur stdDeviation="6" result="b"/><feMerge><feMergeNode in="b"/><feMergeNode in="SourceGraphic"/></feMerge></filter>
  </defs>
  <rect width="1200" height="680" fill="url(#sky)"/>
  <g opacity=".72">
    <rect x="70" y="150" width="120" height="330" fill="#10255c"/>
    <rect x="230" y="80" width="150" height="420" fill="#0c1e4b"/>
    <rect x="420" y="130" width="130" height="360" fill="#162d71"/>
    <rect x="845" y="90" width="170" height="410" fill="#0a1a42"/>
    <rect x="1040" y="170" width="100" height="310" fill="#17317c"/>
  </g>
  <g stroke="#16f1ff" stroke-width="8" filter="url(#glow)">
    <path d="M70 510C280 394 405 402 572 495c132 73 295 87 558-61" fill="none"/>
    <path d="M70 575c206-90 372-71 530 17 134 75 302 78 530-43" fill="none" opacity=".7"/>
  </g>
  <path d="M0 620c245-108 430-94 598 0s347 70 602-72v132H0z" fill="#111827"/>
  <path d="M0 622c245-108 430-94 598 0s347 70 602-72" fill="none" stroke="#ffdf3f" stroke-width="12"/>
  <g fill="#ff4bff" filter="url(#glow)">
    <rect x="92" y="198" width="64" height="8"/>
    <rect x="258" y="145" width="84" height="8"/>
    <rect x="880" y="170" width="92" height="8"/>
    <rect x="1060" y="235" width="58" height="8"/>
  </g>
</svg>
